<?xml version="1.0"?>
<svg width="120" height="24" xmlns="http://www.w3.org/2000/svg" xmlns:svg="http://www.w3.org/2000/svg">
 <g>
  <title>Layer 1</title>
  <path fill="black" id="svg_1" d="m17.384001,17.705q0,0.535999 -0.375,0.910999l-1.821001,1.821001q-0.375,0.375 -0.910999,0.375t-0.911,-0.375l-3.938,-3.938l-3.938001,3.938q-0.375,0.375 -0.911,0.375t-0.911,-0.375l-1.821,-1.821001q-0.375,-0.375 -0.375,-0.910999t0.375,-0.910999l3.938,-3.938001l-3.938,-3.938q-0.375,-0.375 -0.375,-0.911t0.375,-0.911l1.821,-1.821q0.375,-0.375 0.911,-0.375t0.911,0.375l3.938001,3.938l3.938,-3.938q0.375,-0.375 0.911,-0.375t0.910999,0.375l1.821001,1.821q0.375,0.375 0.375,0.911t-0.375,0.911l-3.938001,3.938l3.938001,3.938001q0.375,0.375 0.375,0.910999zm40.553999,3.362l-8.731998,-8.719q-0.496002,-0.495999 -0.496002,-1.212t0.496002,-1.212l8.731998,-8.719q0.495998,-0.496 1.212002,-0.496t1.211998,0.496l1.004002,1.004q0.495998,0.496 0.495998,1.212t-0.495998,1.212l-6.509003,6.509l6.509003,6.496q0.495998,0.508999 0.495998,1.219t-0.495998,1.205l-1.004002,1.004q-0.495998,0.496 -1.211998,0.496t-1.212002,-0.496l0,0.000999zm52.781002,-9.924q0,0.696 -0.496002,1.219001l-8.732002,8.718999q-0.495995,0.496 -1.204994,0.496t-1.205002,-0.496l-1.017998,-1.004q-0.496002,-0.521999 -0.496002,-1.219q0,-0.709999 0.496002,-1.205l6.508995,-6.509l-6.508995,-6.496q-0.496002,-0.522 -0.496002,-1.219q0,-0.71 0.496002,-1.205l1.017998,-1.004q0.482002,-0.509 1.205002,-0.509t1.204994,0.509l8.732002,8.719q0.496002,0.496 0.496002,1.205l0,-0.001z"/>
 </g>
</svg>